<?xml version="1.0" encoding="UTF-8" standalone="no"?>
<!DOCTYPE svg PUBLIC "-//W3C//DTD SVG 1.1//EN"
 "http://www.w3.org/Graphics/SVG/1.1/DTD/svg11.dtd">
<!-- Generated by graphviz version 2.34.0 (20140110.0949)
 -->
<!-- Title: heat_stack_rdo_stack_3 Pages: 1 -->
<svg width="1452pt" height="387pt"
 viewBox="0.00 0.00 1452.00 387.00" xmlns="http://www.w3.org/2000/svg" xmlns:xlink="http://www.w3.org/1999/xlink">
<g id="graph0" class="graph" transform="scale(1 1) rotate(0) translate(4 383)">
<title>heat_stack_rdo_stack_3</title>
<polygon fill="white" stroke="white" points="-4,4 -4,-383 1448,-383 1448,4 -4,4"/>
<!-- 40f36b87&#45;2c4d&#45;4b40&#45;80fc&#45;581f0dfb74f2:db_password -->
<g id="node1" class="node"><title>40f36b87&#45;2c4d&#45;4b40&#45;80fc&#45;581f0dfb74f2:db_password</title>
<ellipse fill="#b2ffea" stroke="#b2ffea" cx="455" cy="-97" rx="57.3905" ry="18"/>
<text text-anchor="middle" x="455" y="-93.3" font-family="Times,serif" font-size="14.00">db_password</text>
</g>
<!-- 40f36b87&#45;2c4d&#45;4b40&#45;80fc&#45;581f0dfb74f2:mysql_server -->
<g id="node6" class="node"><title>40f36b87&#45;2c4d&#45;4b40&#45;80fc&#45;581f0dfb74f2:mysql_server</title>
<ellipse fill="#f8ffb2" stroke="#f8ffb2" cx="689" cy="-72" rx="58.4896" ry="18"/>
<text text-anchor="middle" x="689" y="-68.3" font-family="Times,serif" font-size="14.00">mysql_server</text>
</g>
<!-- 40f36b87&#45;2c4d&#45;4b40&#45;80fc&#45;581f0dfb74f2:db_password&#45;&gt;40f36b87&#45;2c4d&#45;4b40&#45;80fc&#45;581f0dfb74f2:mysql_server -->
<g id="edge8" class="edge"><title>40f36b87&#45;2c4d&#45;4b40&#45;80fc&#45;581f0dfb74f2:db_password&#45;&gt;40f36b87&#45;2c4d&#45;4b40&#45;80fc&#45;581f0dfb74f2:mysql_server</title>
<path fill="none" stroke="black" d="M509.225,-91.2645C543.074,-87.617 587.128,-82.8698 623.034,-79.0006"/>
<polygon fill="black" stroke="black" points="623.844,-82.4337 633.412,-77.8824 623.094,-75.474 623.844,-82.4337"/>
</g>
<!-- 40f36b87&#45;2c4d&#45;4b40&#45;80fc&#45;581f0dfb74f2:wordpress_server -->
<g id="node14" class="node"><title>40f36b87&#45;2c4d&#45;4b40&#45;80fc&#45;581f0dfb74f2:wordpress_server</title>
<ellipse fill="#f8ffb2" stroke="#f8ffb2" cx="1127" cy="-118" rx="72.5877" ry="18"/>
<text text-anchor="middle" x="1127" y="-114.3" font-family="Times,serif" font-size="14.00">wordpress_server</text>
</g>
<!-- 40f36b87&#45;2c4d&#45;4b40&#45;80fc&#45;581f0dfb74f2:db_password&#45;&gt;40f36b87&#45;2c4d&#45;4b40&#45;80fc&#45;581f0dfb74f2:wordpress_server -->
<g id="edge7" class="edge"><title>40f36b87&#45;2c4d&#45;4b40&#45;80fc&#45;581f0dfb74f2:db_password&#45;&gt;40f36b87&#45;2c4d&#45;4b40&#45;80fc&#45;581f0dfb74f2:wordpress_server</title>
<path fill="none" stroke="black" d="M511.971,-98.7543C630.331,-102.464 906.431,-111.118 1044.44,-115.444"/>
<polygon fill="black" stroke="black" points="1044.43,-118.945 1054.54,-115.76 1044.65,-111.948 1044.43,-118.945"/>
</g>
<!-- 40f36b87&#45;2c4d&#45;4b40&#45;80fc&#45;581f0dfb74f2:extrouter -->
<g id="node2" class="node"><title>40f36b87&#45;2c4d&#45;4b40&#45;80fc&#45;581f0dfb74f2:extrouter</title>
<ellipse fill="#ffb2dc" stroke="#ffb2dc" cx="243" cy="-161" rx="42.4939" ry="18"/>
<text text-anchor="middle" x="243" y="-157.3" font-family="Times,serif" font-size="14.00">extrouter</text>
</g>
<!-- 40f36b87&#45;2c4d&#45;4b40&#45;80fc&#45;581f0dfb74f2:extrouter_inside -->
<g id="node3" class="node"><title>40f36b87&#45;2c4d&#45;4b40&#45;80fc&#45;581f0dfb74f2:extrouter_inside</title>
<ellipse fill="#ceffb2" stroke="#ceffb2" cx="455" cy="-229" rx="67.6881" ry="18"/>
<text text-anchor="middle" x="455" y="-225.3" font-family="Times,serif" font-size="14.00">extrouter_inside</text>
</g>
<!-- 40f36b87&#45;2c4d&#45;4b40&#45;80fc&#45;581f0dfb74f2:extrouter&#45;&gt;40f36b87&#45;2c4d&#45;4b40&#45;80fc&#45;581f0dfb74f2:extrouter_inside -->
<g id="edge9" class="edge"><title>40f36b87&#45;2c4d&#45;4b40&#45;80fc&#45;581f0dfb74f2:extrouter&#45;&gt;40f36b87&#45;2c4d&#45;4b40&#45;80fc&#45;581f0dfb74f2:extrouter_inside</title>
<path fill="none" stroke="black" d="M277.275,-171.775C310.753,-182.615 362.865,-199.49 401.84,-212.11"/>
<polygon fill="black" stroke="black" points="400.854,-215.47 411.446,-215.221 403.011,-208.81 400.854,-215.47"/>
</g>
<!-- 40f36b87&#45;2c4d&#45;4b40&#45;80fc&#45;581f0dfb74f2:mysql_server_floating -->
<g id="node8" class="node"><title>40f36b87&#45;2c4d&#45;4b40&#45;80fc&#45;581f0dfb74f2:mysql_server_floating</title>
<ellipse fill="#f8b2ff" stroke="#f8b2ff" cx="689" cy="-202" rx="90.1842" ry="18"/>
<text text-anchor="middle" x="689" y="-198.3" font-family="Times,serif" font-size="14.00">mysql_server_floating</text>
</g>
<!-- 40f36b87&#45;2c4d&#45;4b40&#45;80fc&#45;581f0dfb74f2:extrouter_inside&#45;&gt;40f36b87&#45;2c4d&#45;4b40&#45;80fc&#45;581f0dfb74f2:mysql_server_floating -->
<g id="edge1" class="edge"><title>40f36b87&#45;2c4d&#45;4b40&#45;80fc&#45;581f0dfb74f2:extrouter_inside&#45;&gt;40f36b87&#45;2c4d&#45;4b40&#45;80fc&#45;581f0dfb74f2:mysql_server_floating</title>
<path fill="none" stroke="black" d="M517.259,-221.871C542.726,-218.907 572.761,-215.411 600.482,-212.185"/>
<polygon fill="black" stroke="black" points="601.05,-215.643 610.578,-211.01 600.24,-208.69 601.05,-215.643"/>
</g>
<!-- 40f36b87&#45;2c4d&#45;4b40&#45;80fc&#45;581f0dfb74f2:wordpress_server_floating -->
<g id="node16" class="node"><title>40f36b87&#45;2c4d&#45;4b40&#45;80fc&#45;581f0dfb74f2:wordpress_server_floating</title>
<ellipse fill="#f8b2ff" stroke="#f8b2ff" cx="689" cy="-256" rx="104.782" ry="18"/>
<text text-anchor="middle" x="689" y="-252.3" font-family="Times,serif" font-size="14.00">wordpress_server_floating</text>
</g>
<!-- 40f36b87&#45;2c4d&#45;4b40&#45;80fc&#45;581f0dfb74f2:extrouter_inside&#45;&gt;40f36b87&#45;2c4d&#45;4b40&#45;80fc&#45;581f0dfb74f2:wordpress_server_floating -->
<g id="edge2" class="edge"><title>40f36b87&#45;2c4d&#45;4b40&#45;80fc&#45;581f0dfb74f2:extrouter_inside&#45;&gt;40f36b87&#45;2c4d&#45;4b40&#45;80fc&#45;581f0dfb74f2:wordpress_server_floating</title>
<path fill="none" stroke="black" d="M517.259,-236.129C540.132,-238.791 566.69,-241.882 591.948,-244.821"/>
<polygon fill="black" stroke="black" points="591.588,-248.303 601.925,-245.983 592.397,-241.35 591.588,-248.303"/>
</g>
<!-- 40f36b87&#45;2c4d&#45;4b40&#45;80fc&#45;581f0dfb74f2:fixed_network -->
<g id="node4" class="node"><title>40f36b87&#45;2c4d&#45;4b40&#45;80fc&#45;581f0dfb74f2:fixed_network</title>
<ellipse fill="#ffb2b2" stroke="#ffb2b2" cx="62" cy="-269" rx="61.99" ry="18"/>
<text text-anchor="middle" x="62" y="-265.3" font-family="Times,serif" font-size="14.00">fixed_network</text>
</g>
<!-- 40f36b87&#45;2c4d&#45;4b40&#45;80fc&#45;581f0dfb74f2:fixed_subnet -->
<g id="node5" class="node"><title>40f36b87&#45;2c4d&#45;4b40&#45;80fc&#45;581f0dfb74f2:fixed_subnet</title>
<ellipse fill="#ffdcb2" stroke="#ffdcb2" cx="243" cy="-269" rx="55.7903" ry="18"/>
<text text-anchor="middle" x="243" y="-265.3" font-family="Times,serif" font-size="14.00">fixed_subnet</text>
</g>
<!-- 40f36b87&#45;2c4d&#45;4b40&#45;80fc&#45;581f0dfb74f2:fixed_network&#45;&gt;40f36b87&#45;2c4d&#45;4b40&#45;80fc&#45;581f0dfb74f2:fixed_subnet -->
<g id="edge14" class="edge"><title>40f36b87&#45;2c4d&#45;4b40&#45;80fc&#45;581f0dfb74f2:fixed_network&#45;&gt;40f36b87&#45;2c4d&#45;4b40&#45;80fc&#45;581f0dfb74f2:fixed_subnet</title>
<path fill="none" stroke="black" d="M123.851,-269C140.965,-269 159.642,-269 176.989,-269"/>
<polygon fill="black" stroke="black" points="177.027,-272.5 187.027,-269 177.027,-265.5 177.027,-272.5"/>
</g>
<!-- 40f36b87&#45;2c4d&#45;4b40&#45;80fc&#45;581f0dfb74f2:mysql_server_eth0 -->
<g id="node7" class="node"><title>40f36b87&#45;2c4d&#45;4b40&#45;80fc&#45;581f0dfb74f2:mysql_server_eth0</title>
<ellipse fill="#b2ffc0" stroke="#b2ffc0" cx="455" cy="-156" rx="77.9862" ry="18"/>
<text text-anchor="middle" x="455" y="-152.3" font-family="Times,serif" font-size="14.00">mysql_server_eth0</text>
</g>
<!-- 40f36b87&#45;2c4d&#45;4b40&#45;80fc&#45;581f0dfb74f2:fixed_network&#45;&gt;40f36b87&#45;2c4d&#45;4b40&#45;80fc&#45;581f0dfb74f2:mysql_server_eth0 -->
<g id="edge13" class="edge"><title>40f36b87&#45;2c4d&#45;4b40&#45;80fc&#45;581f0dfb74f2:fixed_network&#45;&gt;40f36b87&#45;2c4d&#45;4b40&#45;80fc&#45;581f0dfb74f2:mysql_server_eth0</title>
<path fill="none" stroke="black" d="M69.677,-250.726C82.0394,-219.96 111.722,-158.76 160,-134 238.088,-93.9526 343.454,-117.417 404.533,-137.283"/>
<polygon fill="black" stroke="black" points="403.716,-140.7 414.309,-140.556 405.938,-134.062 403.716,-140.7"/>
</g>
<!-- 40f36b87&#45;2c4d&#45;4b40&#45;80fc&#45;581f0dfb74f2:wordpress_server_eth0 -->
<g id="node15" class="node"><title>40f36b87&#45;2c4d&#45;4b40&#45;80fc&#45;581f0dfb74f2:wordpress_server_eth0</title>
<ellipse fill="#b2ffc0" stroke="#b2ffc0" cx="455" cy="-292" rx="92.0841" ry="18"/>
<text text-anchor="middle" x="455" y="-288.3" font-family="Times,serif" font-size="14.00">wordpress_server_eth0</text>
</g>
<!-- 40f36b87&#45;2c4d&#45;4b40&#45;80fc&#45;581f0dfb74f2:fixed_network&#45;&gt;40f36b87&#45;2c4d&#45;4b40&#45;80fc&#45;581f0dfb74f2:wordpress_server_eth0 -->
<g id="edge12" class="edge"><title>40f36b87&#45;2c4d&#45;4b40&#45;80fc&#45;581f0dfb74f2:fixed_network&#45;&gt;40f36b87&#45;2c4d&#45;4b40&#45;80fc&#45;581f0dfb74f2:wordpress_server_eth0</title>
<path fill="none" stroke="black" d="M102.602,-282.647C119.985,-287.949 140.775,-293.374 160,-296 226.797,-305.123 302.922,-303.768 360.972,-300.319"/>
<polygon fill="black" stroke="black" points="361.465,-303.795 371.226,-299.676 361.027,-296.808 361.465,-303.795"/>
</g>
<!-- 40f36b87&#45;2c4d&#45;4b40&#45;80fc&#45;581f0dfb74f2:fixed_subnet&#45;&gt;40f36b87&#45;2c4d&#45;4b40&#45;80fc&#45;581f0dfb74f2:extrouter_inside -->
<g id="edge25" class="edge"><title>40f36b87&#45;2c4d&#45;4b40&#45;80fc&#45;581f0dfb74f2:fixed_subnet&#45;&gt;40f36b87&#45;2c4d&#45;4b40&#45;80fc&#45;581f0dfb74f2:extrouter_inside</title>
<path fill="none" stroke="black" d="M291.39,-259.973C320.317,-254.463 357.693,-247.344 389.316,-241.321"/>
<polygon fill="black" stroke="black" points="390.195,-244.716 399.363,-239.407 388.885,-237.84 390.195,-244.716"/>
</g>
<!-- 40f36b87&#45;2c4d&#45;4b40&#45;80fc&#45;581f0dfb74f2:fixed_subnet&#45;&gt;40f36b87&#45;2c4d&#45;4b40&#45;80fc&#45;581f0dfb74f2:mysql_server_eth0 -->
<g id="edge26" class="edge"><title>40f36b87&#45;2c4d&#45;4b40&#45;80fc&#45;581f0dfb74f2:fixed_subnet&#45;&gt;40f36b87&#45;2c4d&#45;4b40&#45;80fc&#45;581f0dfb74f2:mysql_server_eth0</title>
<path fill="none" stroke="black" d="M289.321,-258.689C301.812,-254.649 314.953,-249.206 326,-242 346.032,-228.932 342.971,-216.49 362,-202 375.169,-191.972 390.864,-183.175 405.528,-176.032"/>
<polygon fill="black" stroke="black" points="407.424,-179.008 414.979,-171.581 404.441,-172.675 407.424,-179.008"/>
</g>
<!-- 40f36b87&#45;2c4d&#45;4b40&#45;80fc&#45;581f0dfb74f2:fixed_subnet&#45;&gt;40f36b87&#45;2c4d&#45;4b40&#45;80fc&#45;581f0dfb74f2:wordpress_server_eth0 -->
<g id="edge24" class="edge"><title>40f36b87&#45;2c4d&#45;4b40&#45;80fc&#45;581f0dfb74f2:fixed_subnet&#45;&gt;40f36b87&#45;2c4d&#45;4b40&#45;80fc&#45;581f0dfb74f2:wordpress_server_eth0</title>
<path fill="none" stroke="black" d="M296.18,-274.715C316.708,-276.963 340.878,-279.61 364.05,-282.148"/>
<polygon fill="black" stroke="black" points="363.934,-285.657 374.256,-283.266 364.696,-278.698 363.934,-285.657"/>
</g>
<!-- 40f36b87&#45;2c4d&#45;4b40&#45;80fc&#45;581f0dfb74f2:mysql_wait_condition -->
<g id="node9" class="node"><title>40f36b87&#45;2c4d&#45;4b40&#45;80fc&#45;581f0dfb74f2:mysql_wait_condition</title>
<ellipse fill="#b2eaff" stroke="#b2eaff" cx="924" cy="-72" rx="89.8845" ry="18"/>
<text text-anchor="middle" x="924" y="-68.3" font-family="Times,serif" font-size="14.00">mysql_wait_condition</text>
</g>
<!-- 40f36b87&#45;2c4d&#45;4b40&#45;80fc&#45;581f0dfb74f2:mysql_server&#45;&gt;40f36b87&#45;2c4d&#45;4b40&#45;80fc&#45;581f0dfb74f2:mysql_wait_condition -->
<g id="edge19" class="edge"><title>40f36b87&#45;2c4d&#45;4b40&#45;80fc&#45;581f0dfb74f2:mysql_server&#45;&gt;40f36b87&#45;2c4d&#45;4b40&#45;80fc&#45;581f0dfb74f2:mysql_wait_condition</title>
<path fill="none" stroke="black" d="M747.596,-72C770.557,-72 797.66,-72 823.607,-72"/>
<polygon fill="black" stroke="black" points="823.866,-75.5001 833.866,-72 823.866,-68.5001 823.866,-75.5001"/>
</g>
<!-- 40f36b87&#45;2c4d&#45;4b40&#45;80fc&#45;581f0dfb74f2:mysql_server_eth0&#45;&gt;40f36b87&#45;2c4d&#45;4b40&#45;80fc&#45;581f0dfb74f2:mysql_server -->
<g id="edge22" class="edge"><title>40f36b87&#45;2c4d&#45;4b40&#45;80fc&#45;581f0dfb74f2:mysql_server_eth0&#45;&gt;40f36b87&#45;2c4d&#45;4b40&#45;80fc&#45;581f0dfb74f2:mysql_server</title>
<path fill="none" stroke="black" d="M499.589,-141.048C514.918,-135.734 532.246,-129.665 548,-124 579.291,-112.748 614.367,-99.7194 641.582,-89.5179"/>
<polygon fill="black" stroke="black" points="643.099,-92.687 651.231,-85.896 640.639,-86.1334 643.099,-92.687"/>
</g>
<!-- 40f36b87&#45;2c4d&#45;4b40&#45;80fc&#45;581f0dfb74f2:mysql_server_eth0&#45;&gt;40f36b87&#45;2c4d&#45;4b40&#45;80fc&#45;581f0dfb74f2:mysql_server_floating -->
<g id="edge23" class="edge"><title>40f36b87&#45;2c4d&#45;4b40&#45;80fc&#45;581f0dfb74f2:mysql_server_eth0&#45;&gt;40f36b87&#45;2c4d&#45;4b40&#45;80fc&#45;581f0dfb74f2:mysql_server_floating</title>
<path fill="none" stroke="black" d="M514.843,-167.667C545.006,-173.648 582.041,-180.991 614.109,-187.349"/>
<polygon fill="black" stroke="black" points="613.841,-190.864 624.331,-189.376 615.203,-183.998 613.841,-190.864"/>
</g>
<!-- 40f36b87&#45;2c4d&#45;4b40&#45;80fc&#45;581f0dfb74f2:mysql_server_eth0&#45;&gt;40f36b87&#45;2c4d&#45;4b40&#45;80fc&#45;581f0dfb74f2:wordpress_server -->
<g id="edge21" class="edge"><title>40f36b87&#45;2c4d&#45;4b40&#45;80fc&#45;581f0dfb74f2:mysql_server_eth0&#45;&gt;40f36b87&#45;2c4d&#45;4b40&#45;80fc&#45;581f0dfb74f2:wordpress_server</title>
<path fill="none" stroke="black" d="M531.462,-152.069C639.347,-146.395 843.887,-135.444 1018,-125 1027.26,-124.445 1036.96,-123.843 1046.59,-123.234"/>
<polygon fill="black" stroke="black" points="1046.82,-126.727 1056.58,-122.598 1046.38,-119.741 1046.82,-126.727"/>
</g>
<!-- 40f36b87&#45;2c4d&#45;4b40&#45;80fc&#45;581f0dfb74f2:mysql_wait_condition&#45;&gt;40f36b87&#45;2c4d&#45;4b40&#45;80fc&#45;581f0dfb74f2:wordpress_server -->
<g id="edge20" class="edge"><title>40f36b87&#45;2c4d&#45;4b40&#45;80fc&#45;581f0dfb74f2:mysql_wait_condition&#45;&gt;40f36b87&#45;2c4d&#45;4b40&#45;80fc&#45;581f0dfb74f2:wordpress_server</title>
<path fill="none" stroke="black" d="M983.949,-85.4907C1008.8,-91.1778 1037.76,-97.8063 1063.03,-103.589"/>
<polygon fill="black" stroke="black" points="1062.35,-107.024 1072.88,-105.843 1063.91,-100.2 1062.35,-107.024"/>
</g>
<!-- 40f36b87&#45;2c4d&#45;4b40&#45;80fc&#45;581f0dfb74f2:mysql_wait_handle -->
<g id="node10" class="node"><title>40f36b87&#45;2c4d&#45;4b40&#45;80fc&#45;581f0dfb74f2:mysql_wait_handle</title>
<ellipse fill="#b2c0ff" stroke="#b2c0ff" cx="455" cy="-32" rx="79.8859" ry="18"/>
<text text-anchor="middle" x="455" y="-28.3" font-family="Times,serif" font-size="14.00">mysql_wait_handle</text>
</g>
<!-- 40f36b87&#45;2c4d&#45;4b40&#45;80fc&#45;581f0dfb74f2:mysql_wait_handle&#45;&gt;40f36b87&#45;2c4d&#45;4b40&#45;80fc&#45;581f0dfb74f2:mysql_server -->
<g id="edge18" class="edge"><title>40f36b87&#45;2c4d&#45;4b40&#45;80fc&#45;581f0dfb74f2:mysql_wait_handle&#45;&gt;40f36b87&#45;2c4d&#45;4b40&#45;80fc&#45;581f0dfb74f2:mysql_server</title>
<path fill="none" stroke="black" d="M519.089,-42.8773C552.772,-48.6848 594.03,-55.7983 627.338,-61.5411"/>
<polygon fill="black" stroke="black" points="626.954,-65.0263 637.403,-63.2764 628.143,-58.1281 626.954,-65.0263"/>
</g>
<!-- 40f36b87&#45;2c4d&#45;4b40&#45;80fc&#45;581f0dfb74f2:mysql_wait_handle&#45;&gt;40f36b87&#45;2c4d&#45;4b40&#45;80fc&#45;581f0dfb74f2:mysql_wait_condition -->
<g id="edge17" class="edge"><title>40f36b87&#45;2c4d&#45;4b40&#45;80fc&#45;581f0dfb74f2:mysql_wait_handle&#45;&gt;40f36b87&#45;2c4d&#45;4b40&#45;80fc&#45;581f0dfb74f2:mysql_wait_condition</title>
<path fill="none" stroke="black" d="M535.181,-31.3022C603.872,-31.5887 705.844,-34.157 794,-45 814.593,-47.5329 836.783,-51.6591 856.855,-55.9321"/>
<polygon fill="black" stroke="black" points="856.313,-59.3961 866.829,-58.1034 857.802,-52.5563 856.313,-59.3961"/>
</g>
<!-- 40f36b87&#45;2c4d&#45;4b40&#45;80fc&#45;581f0dfb74f2:secgroup_common -->
<g id="node11" class="node"><title>40f36b87&#45;2c4d&#45;4b40&#45;80fc&#45;581f0dfb74f2:secgroup_common</title>
<ellipse fill="#ceb2ff" stroke="#ceb2ff" cx="243" cy="-215" rx="78.7863" ry="18"/>
<text text-anchor="middle" x="243" y="-211.3" font-family="Times,serif" font-size="14.00">secgroup_common</text>
</g>
<!-- 40f36b87&#45;2c4d&#45;4b40&#45;80fc&#45;581f0dfb74f2:secgroup_common&#45;&gt;40f36b87&#45;2c4d&#45;4b40&#45;80fc&#45;581f0dfb74f2:mysql_server_eth0 -->
<g id="edge28" class="edge"><title>40f36b87&#45;2c4d&#45;4b40&#45;80fc&#45;581f0dfb74f2:secgroup_common&#45;&gt;40f36b87&#45;2c4d&#45;4b40&#45;80fc&#45;581f0dfb74f2:mysql_server_eth0</title>
<path fill="none" stroke="black" d="M293.501,-201.093C323.941,-192.54 363.114,-181.535 395.139,-172.537"/>
<polygon fill="black" stroke="black" points="396.151,-175.889 404.831,-169.814 394.257,-169.149 396.151,-175.889"/>
</g>
<!-- 40f36b87&#45;2c4d&#45;4b40&#45;80fc&#45;581f0dfb74f2:secgroup_common&#45;&gt;40f36b87&#45;2c4d&#45;4b40&#45;80fc&#45;581f0dfb74f2:wordpress_server_eth0 -->
<g id="edge27" class="edge"><title>40f36b87&#45;2c4d&#45;4b40&#45;80fc&#45;581f0dfb74f2:secgroup_common&#45;&gt;40f36b87&#45;2c4d&#45;4b40&#45;80fc&#45;581f0dfb74f2:wordpress_server_eth0</title>
<path fill="none" stroke="black" d="M289.693,-229.558C301.559,-233.472 314.294,-237.79 326,-242 328.02,-242.726 368.248,-258.448 403.072,-272.07"/>
<polygon fill="black" stroke="black" points="402.127,-275.459 412.715,-275.843 404.677,-268.94 402.127,-275.459"/>
</g>
<!-- 40f36b87&#45;2c4d&#45;4b40&#45;80fc&#45;581f0dfb74f2:secgroup_db -->
<g id="node12" class="node"><title>40f36b87&#45;2c4d&#45;4b40&#45;80fc&#45;581f0dfb74f2:secgroup_db</title>
<ellipse fill="#ceb2ff" stroke="#ceb2ff" cx="243" cy="-69" rx="55.7903" ry="18"/>
<text text-anchor="middle" x="243" y="-65.3" font-family="Times,serif" font-size="14.00">secgroup_db</text>
</g>
<!-- 40f36b87&#45;2c4d&#45;4b40&#45;80fc&#45;581f0dfb74f2:secgroup_db&#45;&gt;40f36b87&#45;2c4d&#45;4b40&#45;80fc&#45;581f0dfb74f2:mysql_server_eth0 -->
<g id="edge11" class="edge"><title>40f36b87&#45;2c4d&#45;4b40&#45;80fc&#45;581f0dfb74f2:secgroup_db&#45;&gt;40f36b87&#45;2c4d&#45;4b40&#45;80fc&#45;581f0dfb74f2:mysql_server_eth0</title>
<path fill="none" stroke="black" d="M281.823,-81.9847C295.954,-87.2941 311.969,-93.8673 326,-101 342.925,-109.604 344.917,-115.714 362,-124 372.936,-129.305 384.983,-134.153 396.656,-138.383"/>
<polygon fill="black" stroke="black" points="395.745,-141.773 406.34,-141.788 398.067,-135.169 395.745,-141.773"/>
</g>
<!-- 40f36b87&#45;2c4d&#45;4b40&#45;80fc&#45;581f0dfb74f2:secgroup_webserver -->
<g id="node13" class="node"><title>40f36b87&#45;2c4d&#45;4b40&#45;80fc&#45;581f0dfb74f2:secgroup_webserver</title>
<ellipse fill="#ceb2ff" stroke="#ceb2ff" cx="243" cy="-361" rx="83.3857" ry="18"/>
<text text-anchor="middle" x="243" y="-357.3" font-family="Times,serif" font-size="14.00">secgroup_webserver</text>
</g>
<!-- 40f36b87&#45;2c4d&#45;4b40&#45;80fc&#45;581f0dfb74f2:secgroup_webserver&#45;&gt;40f36b87&#45;2c4d&#45;4b40&#45;80fc&#45;581f0dfb74f2:wordpress_server_eth0 -->
<g id="edge10" class="edge"><title>40f36b87&#45;2c4d&#45;4b40&#45;80fc&#45;581f0dfb74f2:secgroup_webserver&#45;&gt;40f36b87&#45;2c4d&#45;4b40&#45;80fc&#45;581f0dfb74f2:wordpress_server_eth0</title>
<path fill="none" stroke="black" d="M289.567,-346.028C321.187,-335.639 363.529,-321.726 397.327,-310.621"/>
<polygon fill="black" stroke="black" points="398.66,-313.867 407.068,-307.421 396.475,-307.217 398.66,-313.867"/>
</g>
<!-- 40f36b87&#45;2c4d&#45;4b40&#45;80fc&#45;581f0dfb74f2:wordpress_wait_condition -->
<g id="node17" class="node"><title>40f36b87&#45;2c4d&#45;4b40&#45;80fc&#45;581f0dfb74f2:wordpress_wait_condition</title>
<ellipse fill="#b2eaff" stroke="#b2eaff" cx="1340" cy="-81" rx="103.982" ry="18"/>
<text text-anchor="middle" x="1340" y="-77.3" font-family="Times,serif" font-size="14.00">wordpress_wait_condition</text>
</g>
<!-- 40f36b87&#45;2c4d&#45;4b40&#45;80fc&#45;581f0dfb74f2:wordpress_server&#45;&gt;40f36b87&#45;2c4d&#45;4b40&#45;80fc&#45;581f0dfb74f2:wordpress_wait_condition -->
<g id="edge6" class="edge"><title>40f36b87&#45;2c4d&#45;4b40&#45;80fc&#45;581f0dfb74f2:wordpress_server&#45;&gt;40f36b87&#45;2c4d&#45;4b40&#45;80fc&#45;581f0dfb74f2:wordpress_wait_condition</title>
<path fill="none" stroke="black" d="M1186.78,-107.693C1208.33,-103.914 1233.14,-99.5629 1256.4,-95.4852"/>
<polygon fill="black" stroke="black" points="1257.01,-98.9315 1266.25,-93.7568 1255.8,-92.0367 1257.01,-98.9315"/>
</g>
<!-- 40f36b87&#45;2c4d&#45;4b40&#45;80fc&#45;581f0dfb74f2:wordpress_server_eth0&#45;&gt;40f36b87&#45;2c4d&#45;4b40&#45;80fc&#45;581f0dfb74f2:wordpress_server -->
<g id="edge3" class="edge"><title>40f36b87&#45;2c4d&#45;4b40&#45;80fc&#45;581f0dfb74f2:wordpress_server_eth0&#45;&gt;40f36b87&#45;2c4d&#45;4b40&#45;80fc&#45;581f0dfb74f2:wordpress_server</title>
<path fill="none" stroke="black" d="M538.604,-299.628C607.873,-303.704 708.839,-304.195 794,-283 911.334,-253.797 1035.24,-178.604 1092.89,-140.642"/>
<polygon fill="black" stroke="black" points="1094.84,-143.548 1101.24,-135.101 1090.97,-137.717 1094.84,-143.548"/>
</g>
<!-- 40f36b87&#45;2c4d&#45;4b40&#45;80fc&#45;581f0dfb74f2:wordpress_server_eth0&#45;&gt;40f36b87&#45;2c4d&#45;4b40&#45;80fc&#45;581f0dfb74f2:wordpress_server_floating -->
<g id="edge4" class="edge"><title>40f36b87&#45;2c4d&#45;4b40&#45;80fc&#45;581f0dfb74f2:wordpress_server_eth0&#45;&gt;40f36b87&#45;2c4d&#45;4b40&#45;80fc&#45;581f0dfb74f2:wordpress_server_floating</title>
<path fill="none" stroke="black" d="M527.817,-280.856C550.757,-277.296 576.406,-273.316 600.341,-269.602"/>
<polygon fill="black" stroke="black" points="601.136,-273.021 610.481,-268.029 600.062,-266.104 601.136,-273.021"/>
</g>
<!-- 40f36b87&#45;2c4d&#45;4b40&#45;80fc&#45;581f0dfb74f2:wordpress_wait_handle -->
<g id="node18" class="node"><title>40f36b87&#45;2c4d&#45;4b40&#45;80fc&#45;581f0dfb74f2:wordpress_wait_handle</title>
<ellipse fill="#b2c0ff" stroke="#b2c0ff" cx="924" cy="-18" rx="94.4839" ry="18"/>
<text text-anchor="middle" x="924" y="-14.3" font-family="Times,serif" font-size="14.00">wordpress_wait_handle</text>
</g>
<!-- 40f36b87&#45;2c4d&#45;4b40&#45;80fc&#45;581f0dfb74f2:wordpress_wait_handle&#45;&gt;40f36b87&#45;2c4d&#45;4b40&#45;80fc&#45;581f0dfb74f2:wordpress_server -->
<g id="edge15" class="edge"><title>40f36b87&#45;2c4d&#45;4b40&#45;80fc&#45;581f0dfb74f2:wordpress_wait_handle&#45;&gt;40f36b87&#45;2c4d&#45;4b40&#45;80fc&#45;581f0dfb74f2:wordpress_server</title>
<path fill="none" stroke="black" d="M983.575,-31.9817C995.226,-35.5985 1007.19,-39.9321 1018,-45 1046.45,-58.3428 1075.82,-78.6904 1096.73,-94.5171"/>
<polygon fill="black" stroke="black" points="1094.81,-97.4532 1104.87,-100.771 1099.07,-91.9027 1094.81,-97.4532"/>
</g>
<!-- 40f36b87&#45;2c4d&#45;4b40&#45;80fc&#45;581f0dfb74f2:wordpress_wait_handle&#45;&gt;40f36b87&#45;2c4d&#45;4b40&#45;80fc&#45;581f0dfb74f2:wordpress_wait_condition -->
<g id="edge16" class="edge"><title>40f36b87&#45;2c4d&#45;4b40&#45;80fc&#45;581f0dfb74f2:wordpress_wait_handle&#45;&gt;40f36b87&#45;2c4d&#45;4b40&#45;80fc&#45;581f0dfb74f2:wordpress_wait_condition</title>
<path fill="none" stroke="black" d="M998.538,-29.1905C1069.25,-39.9515 1176.19,-56.2249 1251.31,-67.6555"/>
<polygon fill="black" stroke="black" points="1250.81,-71.1206 1261.23,-69.1649 1251.87,-64.2002 1250.81,-71.1206"/>
</g>
<!-- 40f36b87&#45;2c4d&#45;4b40&#45;80fc&#45;581f0dfb74f2:wp_auth_key -->
<g id="node19" class="node"><title>40f36b87&#45;2c4d&#45;4b40&#45;80fc&#45;581f0dfb74f2:wp_auth_key</title>
<ellipse fill="#b2ffea" stroke="#b2ffea" cx="924" cy="-348" rx="57.6901" ry="18"/>
<text text-anchor="middle" x="924" y="-344.3" font-family="Times,serif" font-size="14.00">wp_auth_key</text>
</g>
<!-- 40f36b87&#45;2c4d&#45;4b40&#45;80fc&#45;581f0dfb74f2:wp_auth_key&#45;&gt;40f36b87&#45;2c4d&#45;4b40&#45;80fc&#45;581f0dfb74f2:wordpress_server -->
<g id="edge5" class="edge"><title>40f36b87&#45;2c4d&#45;4b40&#45;80fc&#45;581f0dfb74f2:wp_auth_key&#45;&gt;40f36b87&#45;2c4d&#45;4b40&#45;80fc&#45;581f0dfb74f2:wordpress_server</title>
<path fill="none" stroke="black" d="M973.9,-338.521C989.269,-333.722 1005.48,-326.578 1018,-316 1072.72,-269.781 1104.38,-188.523 1118,-145.896"/>
<polygon fill="black" stroke="black" points="1121.39,-146.768 1121,-136.181 1114.7,-144.701 1121.39,-146.768"/>
</g>
</g>
</svg>
