<?xml version="1.0" encoding="UTF-8" standalone="no"?>
<!DOCTYPE svg PUBLIC "-//W3C//DTD SVG 1.1//EN"
 "http://www.w3.org/Graphics/SVG/1.1/DTD/svg11.dtd">
<!-- Generated by graphviz version 2.34.0 (20140110.0949)
 -->
<!-- Title: heat_stack_wp_simple Pages: 1 -->
<svg width="985pt" height="476pt"
 viewBox="0.00 0.00 985.00 476.00" xmlns="http://www.w3.org/2000/svg" xmlns:xlink="http://www.w3.org/1999/xlink">
<g id="graph0" class="graph" transform="scale(1 1) rotate(0) translate(4 472)">
<title>heat_stack_wp_simple</title>
<polygon fill="white" stroke="white" points="-4,4 -4,-472 981,-472 981,4 -4,4"/>
<!-- 5ba94df5&#45;9b1e&#45;411b&#45;a3fc&#45;911e0544563e:db_password -->
<g id="node1" class="node"><title>5ba94df5&#45;9b1e&#45;411b&#45;a3fc&#45;911e0544563e:db_password</title>
<ellipse fill="#b2ffea" stroke="#b2ffea" cx="234" cy="-306" rx="57.2927" ry="18"/>
<text text-anchor="middle" x="234" y="-302.3" font-family="Times,serif" font-size="14.00">db_password</text>
</g>
<!-- 5ba94df5&#45;9b1e&#45;411b&#45;a3fc&#45;911e0544563e:mysql_server -->
<g id="node6" class="node"><title>5ba94df5&#45;9b1e&#45;411b&#45;a3fc&#45;911e0544563e:mysql_server</title>
<ellipse fill="#f8ffb2" stroke="#f8ffb2" cx="165" cy="-234" rx="58.2422" ry="18"/>
<text text-anchor="middle" x="165" y="-230.3" font-family="Times,serif" font-size="14.00">mysql_server</text>
</g>
<!-- 5ba94df5&#45;9b1e&#45;411b&#45;a3fc&#45;911e0544563e:db_password&#45;&gt;5ba94df5&#45;9b1e&#45;411b&#45;a3fc&#45;911e0544563e:mysql_server -->
<g id="edge8" class="edge"><title>5ba94df5&#45;9b1e&#45;411b&#45;a3fc&#45;911e0544563e:db_password&#45;&gt;5ba94df5&#45;9b1e&#45;411b&#45;a3fc&#45;911e0544563e:mysql_server</title>
<path fill="none" stroke="black" d="M217.648,-288.411C208.883,-279.519 197.933,-268.411 188.293,-258.631"/>
<polygon fill="black" stroke="black" points="190.747,-256.135 181.235,-251.47 185.762,-261.049 190.747,-256.135"/>
</g>
<!-- 5ba94df5&#45;9b1e&#45;411b&#45;a3fc&#45;911e0544563e:wordpress_server -->
<g id="node14" class="node"><title>5ba94df5&#45;9b1e&#45;411b&#45;a3fc&#45;911e0544563e:wordpress_server</title>
<ellipse fill="#f8ffb2" stroke="#f8ffb2" cx="521" cy="-90" rx="72.192" ry="18"/>
<text text-anchor="middle" x="521" y="-86.3" font-family="Times,serif" font-size="14.00">wordpress_server</text>
</g>
<!-- 5ba94df5&#45;9b1e&#45;411b&#45;a3fc&#45;911e0544563e:db_password&#45;&gt;5ba94df5&#45;9b1e&#45;411b&#45;a3fc&#45;911e0544563e:wordpress_server -->
<g id="edge7" class="edge"><title>5ba94df5&#45;9b1e&#45;411b&#45;a3fc&#45;911e0544563e:db_password&#45;&gt;5ba94df5&#45;9b1e&#45;411b&#45;a3fc&#45;911e0544563e:wordpress_server</title>
<path fill="none" stroke="black" d="M239.671,-287.997C251.547,-255.049 282.213,-182.379 333,-144 365.149,-119.705 407.958,-106.545 444.605,-99.4177"/>
<polygon fill="black" stroke="black" points="445.555,-102.802 454.763,-97.563 444.297,-95.916 445.555,-102.802"/>
</g>
<!-- 5ba94df5&#45;9b1e&#45;411b&#45;a3fc&#45;911e0544563e:extrouter -->
<g id="node2" class="node"><title>5ba94df5&#45;9b1e&#45;411b&#45;a3fc&#45;911e0544563e:extrouter</title>
<ellipse fill="#ffb2dc" stroke="#ffb2dc" cx="407" cy="-378" rx="42.3701" ry="18"/>
<text text-anchor="middle" x="407" y="-374.3" font-family="Times,serif" font-size="14.00">extrouter</text>
</g>
<!-- 5ba94df5&#45;9b1e&#45;411b&#45;a3fc&#45;911e0544563e:extrouter_inside -->
<g id="node3" class="node"><title>5ba94df5&#45;9b1e&#45;411b&#45;a3fc&#45;911e0544563e:extrouter_inside</title>
<ellipse fill="#f8b2ff" stroke="#f8b2ff" cx="557" cy="-306" rx="67.3907" ry="18"/>
<text text-anchor="middle" x="557" y="-302.3" font-family="Times,serif" font-size="14.00">extrouter_inside</text>
</g>
<!-- 5ba94df5&#45;9b1e&#45;411b&#45;a3fc&#45;911e0544563e:extrouter&#45;&gt;5ba94df5&#45;9b1e&#45;411b&#45;a3fc&#45;911e0544563e:extrouter_inside -->
<g id="edge9" class="edge"><title>5ba94df5&#45;9b1e&#45;411b&#45;a3fc&#45;911e0544563e:extrouter&#45;&gt;5ba94df5&#45;9b1e&#45;411b&#45;a3fc&#45;911e0544563e:extrouter_inside</title>
<path fill="none" stroke="black" d="M434.512,-364.161C457.261,-353.545 489.912,-338.308 515.783,-326.235"/>
<polygon fill="black" stroke="black" points="517.395,-329.345 524.976,-321.944 514.435,-323.002 517.395,-329.345"/>
</g>
<!-- 5ba94df5&#45;9b1e&#45;411b&#45;a3fc&#45;911e0544563e:mysql_server_floating -->
<g id="node8" class="node"><title>5ba94df5&#45;9b1e&#45;411b&#45;a3fc&#45;911e0544563e:mysql_server_floating</title>
<ellipse fill="#ceffb2" stroke="#ceffb2" cx="407" cy="-234" rx="90.0136" ry="18"/>
<text text-anchor="middle" x="407" y="-230.3" font-family="Times,serif" font-size="14.00">mysql_server_floating</text>
</g>
<!-- 5ba94df5&#45;9b1e&#45;411b&#45;a3fc&#45;911e0544563e:extrouter_inside&#45;&gt;5ba94df5&#45;9b1e&#45;411b&#45;a3fc&#45;911e0544563e:mysql_server_floating -->
<g id="edge2" class="edge"><title>5ba94df5&#45;9b1e&#45;411b&#45;a3fc&#45;911e0544563e:extrouter_inside&#45;&gt;5ba94df5&#45;9b1e&#45;411b&#45;a3fc&#45;911e0544563e:mysql_server_floating</title>
<path fill="none" stroke="black" d="M524.821,-289.983C502.934,-279.769 473.731,-266.141 449.874,-255.008"/>
<polygon fill="black" stroke="black" points="451.228,-251.778 440.686,-250.72 448.268,-258.121 451.228,-251.778"/>
</g>
<!-- 5ba94df5&#45;9b1e&#45;411b&#45;a3fc&#45;911e0544563e:wordpress_server_floating -->
<g id="node16" class="node"><title>5ba94df5&#45;9b1e&#45;411b&#45;a3fc&#45;911e0544563e:wordpress_server_floating</title>
<ellipse fill="#ceffb2" stroke="#ceffb2" cx="620" cy="-234" rx="104.461" ry="18"/>
<text text-anchor="middle" x="620" y="-230.3" font-family="Times,serif" font-size="14.00">wordpress_server_floating</text>
</g>
<!-- 5ba94df5&#45;9b1e&#45;411b&#45;a3fc&#45;911e0544563e:extrouter_inside&#45;&gt;5ba94df5&#45;9b1e&#45;411b&#45;a3fc&#45;911e0544563e:wordpress_server_floating -->
<g id="edge1" class="edge"><title>5ba94df5&#45;9b1e&#45;411b&#45;a3fc&#45;911e0544563e:extrouter_inside&#45;&gt;5ba94df5&#45;9b1e&#45;411b&#45;a3fc&#45;911e0544563e:wordpress_server_floating</title>
<path fill="none" stroke="black" d="M571.93,-288.411C579.662,-279.82 589.257,-269.159 597.835,-259.627"/>
<polygon fill="black" stroke="black" points="600.651,-261.731 604.739,-251.956 595.448,-257.048 600.651,-261.731"/>
</g>
<!-- 5ba94df5&#45;9b1e&#45;411b&#45;a3fc&#45;911e0544563e:fixed_network -->
<g id="node4" class="node"><title>5ba94df5&#45;9b1e&#45;411b&#45;a3fc&#45;911e0544563e:fixed_network</title>
<ellipse fill="#ffb2b2" stroke="#ffb2b2" cx="699" cy="-450" rx="61.6163" ry="18"/>
<text text-anchor="middle" x="699" y="-446.3" font-family="Times,serif" font-size="14.00">fixed_network</text>
</g>
<!-- 5ba94df5&#45;9b1e&#45;411b&#45;a3fc&#45;911e0544563e:fixed_subnet -->
<g id="node5" class="node"><title>5ba94df5&#45;9b1e&#45;411b&#45;a3fc&#45;911e0544563e:fixed_subnet</title>
<ellipse fill="#ffdcb2" stroke="#ffdcb2" cx="699" cy="-378" rx="55.3436" ry="18"/>
<text text-anchor="middle" x="699" y="-374.3" font-family="Times,serif" font-size="14.00">fixed_subnet</text>
</g>
<!-- 5ba94df5&#45;9b1e&#45;411b&#45;a3fc&#45;911e0544563e:fixed_network&#45;&gt;5ba94df5&#45;9b1e&#45;411b&#45;a3fc&#45;911e0544563e:fixed_subnet -->
<g id="edge13" class="edge"><title>5ba94df5&#45;9b1e&#45;411b&#45;a3fc&#45;911e0544563e:fixed_network&#45;&gt;5ba94df5&#45;9b1e&#45;411b&#45;a3fc&#45;911e0544563e:fixed_subnet</title>
<path fill="none" stroke="black" d="M699,-431.697C699,-423.983 699,-414.712 699,-406.112"/>
<polygon fill="black" stroke="black" points="702.5,-406.104 699,-396.104 695.5,-406.104 702.5,-406.104"/>
</g>
<!-- 5ba94df5&#45;9b1e&#45;411b&#45;a3fc&#45;911e0544563e:mysql_server_eth0 -->
<g id="node7" class="node"><title>5ba94df5&#45;9b1e&#45;411b&#45;a3fc&#45;911e0544563e:mysql_server_eth0</title>
<ellipse fill="#b2ffc0" stroke="#b2ffc0" cx="387" cy="-306" rx="77.4897" ry="18"/>
<text text-anchor="middle" x="387" y="-302.3" font-family="Times,serif" font-size="14.00">mysql_server_eth0</text>
</g>
<!-- 5ba94df5&#45;9b1e&#45;411b&#45;a3fc&#45;911e0544563e:fixed_network&#45;&gt;5ba94df5&#45;9b1e&#45;411b&#45;a3fc&#45;911e0544563e:mysql_server_eth0 -->
<g id="edge14" class="edge"><title>5ba94df5&#45;9b1e&#45;411b&#45;a3fc&#45;911e0544563e:fixed_network&#45;&gt;5ba94df5&#45;9b1e&#45;411b&#45;a3fc&#45;911e0544563e:mysql_server_eth0</title>
<path fill="none" stroke="black" d="M638.608,-446.646C517.258,-441.292 253.058,-426.26 226,-396 192.643,-358.697 260.431,-333.717 318.047,-319.949"/>
<polygon fill="black" stroke="black" points="318.965,-323.329 327.923,-317.672 317.392,-316.508 318.965,-323.329"/>
</g>
<!-- 5ba94df5&#45;9b1e&#45;411b&#45;a3fc&#45;911e0544563e:wordpress_server_eth0 -->
<g id="node15" class="node"><title>5ba94df5&#45;9b1e&#45;411b&#45;a3fc&#45;911e0544563e:wordpress_server_eth0</title>
<ellipse fill="#b2ffc0" stroke="#b2ffc0" cx="741" cy="-306" rx="91.9385" ry="18"/>
<text text-anchor="middle" x="741" y="-302.3" font-family="Times,serif" font-size="14.00">wordpress_server_eth0</text>
</g>
<!-- 5ba94df5&#45;9b1e&#45;411b&#45;a3fc&#45;911e0544563e:fixed_network&#45;&gt;5ba94df5&#45;9b1e&#45;411b&#45;a3fc&#45;911e0544563e:wordpress_server_eth0 -->
<g id="edge12" class="edge"><title>5ba94df5&#45;9b1e&#45;411b&#45;a3fc&#45;911e0544563e:fixed_network&#45;&gt;5ba94df5&#45;9b1e&#45;411b&#45;a3fc&#45;911e0544563e:wordpress_server_eth0</title>
<path fill="none" stroke="black" d="M727.092,-433.73C740.624,-424.711 755.51,-411.927 763,-396 772.459,-375.885 765.051,-351.23 756.363,-332.974"/>
<polygon fill="black" stroke="black" points="759.47,-331.363 751.786,-324.069 753.244,-334.563 759.47,-331.363"/>
</g>
<!-- 5ba94df5&#45;9b1e&#45;411b&#45;a3fc&#45;911e0544563e:fixed_subnet&#45;&gt;5ba94df5&#45;9b1e&#45;411b&#45;a3fc&#45;911e0544563e:extrouter_inside -->
<g id="edge25" class="edge"><title>5ba94df5&#45;9b1e&#45;411b&#45;a3fc&#45;911e0544563e:fixed_subnet&#45;&gt;5ba94df5&#45;9b1e&#45;411b&#45;a3fc&#45;911e0544563e:extrouter_inside</title>
<path fill="none" stroke="black" d="M669.922,-362.666C648.955,-352.33 620.39,-338.248 597.236,-326.834"/>
<polygon fill="black" stroke="black" points="598.525,-323.568 588.008,-322.285 595.429,-329.846 598.525,-323.568"/>
</g>
<!-- 5ba94df5&#45;9b1e&#45;411b&#45;a3fc&#45;911e0544563e:fixed_subnet&#45;&gt;5ba94df5&#45;9b1e&#45;411b&#45;a3fc&#45;911e0544563e:mysql_server_eth0 -->
<g id="edge26" class="edge"><title>5ba94df5&#45;9b1e&#45;411b&#45;a3fc&#45;911e0544563e:fixed_subnet&#45;&gt;5ba94df5&#45;9b1e&#45;411b&#45;a3fc&#45;911e0544563e:mysql_server_eth0</title>
<path fill="none" stroke="black" d="M657.518,-366.046C649.402,-363.979 640.945,-361.878 633,-360 572.342,-345.66 502.888,-330.842 453.283,-320.533"/>
<polygon fill="black" stroke="black" points="453.825,-317.071 443.323,-318.468 452.404,-323.925 453.825,-317.071"/>
</g>
<!-- 5ba94df5&#45;9b1e&#45;411b&#45;a3fc&#45;911e0544563e:fixed_subnet&#45;&gt;5ba94df5&#45;9b1e&#45;411b&#45;a3fc&#45;911e0544563e:wordpress_server_eth0 -->
<g id="edge24" class="edge"><title>5ba94df5&#45;9b1e&#45;411b&#45;a3fc&#45;911e0544563e:fixed_subnet&#45;&gt;5ba94df5&#45;9b1e&#45;411b&#45;a3fc&#45;911e0544563e:wordpress_server_eth0</title>
<path fill="none" stroke="black" d="M709.167,-360.055C714.047,-351.922 720.001,-341.998 725.434,-332.943"/>
<polygon fill="black" stroke="black" points="728.491,-334.651 730.635,-324.275 722.489,-331.049 728.491,-334.651"/>
</g>
<!-- 5ba94df5&#45;9b1e&#45;411b&#45;a3fc&#45;911e0544563e:mysql_wait_condition -->
<g id="node9" class="node"><title>5ba94df5&#45;9b1e&#45;411b&#45;a3fc&#45;911e0544563e:mysql_wait_condition</title>
<ellipse fill="#b2eaff" stroke="#b2eaff" cx="133" cy="-162" rx="89.5377" ry="18"/>
<text text-anchor="middle" x="133" y="-158.3" font-family="Times,serif" font-size="14.00">mysql_wait_condition</text>
</g>
<!-- 5ba94df5&#45;9b1e&#45;411b&#45;a3fc&#45;911e0544563e:mysql_server&#45;&gt;5ba94df5&#45;9b1e&#45;411b&#45;a3fc&#45;911e0544563e:mysql_wait_condition -->
<g id="edge19" class="edge"><title>5ba94df5&#45;9b1e&#45;411b&#45;a3fc&#45;911e0544563e:mysql_server&#45;&gt;5ba94df5&#45;9b1e&#45;411b&#45;a3fc&#45;911e0544563e:mysql_wait_condition</title>
<path fill="none" stroke="black" d="M157.254,-216.055C153.613,-208.091 149.188,-198.411 145.119,-189.51"/>
<polygon fill="black" stroke="black" points="148.238,-187.915 140.897,-180.275 141.872,-190.825 148.238,-187.915"/>
</g>
<!-- 5ba94df5&#45;9b1e&#45;411b&#45;a3fc&#45;911e0544563e:mysql_server_eth0&#45;&gt;5ba94df5&#45;9b1e&#45;411b&#45;a3fc&#45;911e0544563e:mysql_server -->
<g id="edge22" class="edge"><title>5ba94df5&#45;9b1e&#45;411b&#45;a3fc&#45;911e0544563e:mysql_server_eth0&#45;&gt;5ba94df5&#45;9b1e&#45;411b&#45;a3fc&#45;911e0544563e:mysql_server</title>
<path fill="none" stroke="black" d="M342.875,-291.087C305.73,-279.374 252.657,-262.64 214.16,-250.501"/>
<polygon fill="black" stroke="black" points="214.8,-247.033 204.21,-247.364 212.695,-253.709 214.8,-247.033"/>
</g>
<!-- 5ba94df5&#45;9b1e&#45;411b&#45;a3fc&#45;911e0544563e:mysql_server_eth0&#45;&gt;5ba94df5&#45;9b1e&#45;411b&#45;a3fc&#45;911e0544563e:mysql_server_floating -->
<g id="edge23" class="edge"><title>5ba94df5&#45;9b1e&#45;411b&#45;a3fc&#45;911e0544563e:mysql_server_eth0&#45;&gt;5ba94df5&#45;9b1e&#45;411b&#45;a3fc&#45;911e0544563e:mysql_server_floating</title>
<path fill="none" stroke="black" d="M391.944,-287.697C394.172,-279.898 396.855,-270.509 399.335,-261.829"/>
<polygon fill="black" stroke="black" points="402.731,-262.681 402.113,-252.104 396,-260.758 402.731,-262.681"/>
</g>
<!-- 5ba94df5&#45;9b1e&#45;411b&#45;a3fc&#45;911e0544563e:mysql_server_eth0&#45;&gt;5ba94df5&#45;9b1e&#45;411b&#45;a3fc&#45;911e0544563e:wordpress_server -->
<g id="edge21" class="edge"><title>5ba94df5&#45;9b1e&#45;411b&#45;a3fc&#45;911e0544563e:mysql_server_eth0&#45;&gt;5ba94df5&#45;9b1e&#45;411b&#45;a3fc&#45;911e0544563e:wordpress_server</title>
<path fill="none" stroke="black" d="M350.05,-289.951C334.081,-281.372 317.015,-268.905 308,-252 300.471,-237.882 300.049,-229.885 308,-216 341.127,-158.149 412.583,-124.461 463.591,-106.924"/>
<polygon fill="black" stroke="black" points="464.8,-110.211 473.183,-103.733 462.59,-103.569 464.8,-110.211"/>
</g>
<!-- 5ba94df5&#45;9b1e&#45;411b&#45;a3fc&#45;911e0544563e:mysql_wait_condition&#45;&gt;5ba94df5&#45;9b1e&#45;411b&#45;a3fc&#45;911e0544563e:wordpress_server -->
<g id="edge20" class="edge"><title>5ba94df5&#45;9b1e&#45;411b&#45;a3fc&#45;911e0544563e:mysql_wait_condition&#45;&gt;5ba94df5&#45;9b1e&#45;411b&#45;a3fc&#45;911e0544563e:wordpress_server</title>
<path fill="none" stroke="black" d="M197.07,-149.441C268.095,-136.627 382.121,-116.056 454.218,-103.048"/>
<polygon fill="black" stroke="black" points="454.884,-106.485 464.104,-101.265 453.642,-99.5959 454.884,-106.485"/>
</g>
<!-- 5ba94df5&#45;9b1e&#45;411b&#45;a3fc&#45;911e0544563e:mysql_wait_handle -->
<g id="node10" class="node"><title>5ba94df5&#45;9b1e&#45;411b&#45;a3fc&#45;911e0544563e:mysql_wait_handle</title>
<ellipse fill="#b2c0ff" stroke="#b2c0ff" cx="79" cy="-306" rx="79.4147" ry="18"/>
<text text-anchor="middle" x="79" y="-302.3" font-family="Times,serif" font-size="14.00">mysql_wait_handle</text>
</g>
<!-- 5ba94df5&#45;9b1e&#45;411b&#45;a3fc&#45;911e0544563e:mysql_wait_handle&#45;&gt;5ba94df5&#45;9b1e&#45;411b&#45;a3fc&#45;911e0544563e:mysql_server -->
<g id="edge18" class="edge"><title>5ba94df5&#45;9b1e&#45;411b&#45;a3fc&#45;911e0544563e:mysql_wait_handle&#45;&gt;5ba94df5&#45;9b1e&#45;411b&#45;a3fc&#45;911e0544563e:mysql_server</title>
<path fill="none" stroke="black" d="M99.3808,-288.411C110.79,-279.125 125.168,-267.421 137.556,-257.338"/>
<polygon fill="black" stroke="black" points="139.811,-260.015 145.357,-250.988 135.392,-254.586 139.811,-260.015"/>
</g>
<!-- 5ba94df5&#45;9b1e&#45;411b&#45;a3fc&#45;911e0544563e:mysql_wait_handle&#45;&gt;5ba94df5&#45;9b1e&#45;411b&#45;a3fc&#45;911e0544563e:mysql_wait_condition -->
<g id="edge17" class="edge"><title>5ba94df5&#45;9b1e&#45;411b&#45;a3fc&#45;911e0544563e:mysql_wait_handle&#45;&gt;5ba94df5&#45;9b1e&#45;411b&#45;a3fc&#45;911e0544563e:mysql_wait_condition</title>
<path fill="none" stroke="black" d="M80.7584,-287.7C83.0627,-269.338 88.0429,-239.751 98,-216 101.987,-206.49 107.731,-196.856 113.417,-188.457"/>
<polygon fill="black" stroke="black" points="116.333,-190.395 119.246,-180.209 110.616,-186.356 116.333,-190.395"/>
</g>
<!-- 5ba94df5&#45;9b1e&#45;411b&#45;a3fc&#45;911e0544563e:secgroup_common -->
<g id="node11" class="node"><title>5ba94df5&#45;9b1e&#45;411b&#45;a3fc&#45;911e0544563e:secgroup_common</title>
<ellipse fill="#ceb2ff" stroke="#ceb2ff" cx="546" cy="-378" rx="78.4642" ry="18"/>
<text text-anchor="middle" x="546" y="-374.3" font-family="Times,serif" font-size="14.00">secgroup_common</text>
</g>
<!-- 5ba94df5&#45;9b1e&#45;411b&#45;a3fc&#45;911e0544563e:secgroup_common&#45;&gt;5ba94df5&#45;9b1e&#45;411b&#45;a3fc&#45;911e0544563e:mysql_server_eth0 -->
<g id="edge28" class="edge"><title>5ba94df5&#45;9b1e&#45;411b&#45;a3fc&#45;911e0544563e:secgroup_common&#45;&gt;5ba94df5&#45;9b1e&#45;411b&#45;a3fc&#45;911e0544563e:mysql_server_eth0</title>
<path fill="none" stroke="black" d="M511.499,-361.811C487.851,-351.4 456.281,-337.501 430.85,-326.305"/>
<polygon fill="black" stroke="black" points="431.996,-322.985 421.433,-322.159 429.175,-329.392 431.996,-322.985"/>
</g>
<!-- 5ba94df5&#45;9b1e&#45;411b&#45;a3fc&#45;911e0544563e:secgroup_common&#45;&gt;5ba94df5&#45;9b1e&#45;411b&#45;a3fc&#45;911e0544563e:wordpress_server_eth0 -->
<g id="edge27" class="edge"><title>5ba94df5&#45;9b1e&#45;411b&#45;a3fc&#45;911e0544563e:secgroup_common&#45;&gt;5ba94df5&#45;9b1e&#45;411b&#45;a3fc&#45;911e0544563e:wordpress_server_eth0</title>
<path fill="none" stroke="black" d="M586.404,-362.496C616.228,-351.79 657.056,-337.134 689.266,-325.571"/>
<polygon fill="black" stroke="black" points="690.734,-328.763 698.964,-322.09 688.369,-322.175 690.734,-328.763"/>
</g>
<!-- 5ba94df5&#45;9b1e&#45;411b&#45;a3fc&#45;911e0544563e:secgroup_db -->
<g id="node12" class="node"><title>5ba94df5&#45;9b1e&#45;411b&#45;a3fc&#45;911e0544563e:secgroup_db</title>
<ellipse fill="#ceb2ff" stroke="#ceb2ff" cx="291" cy="-378" rx="55.3436" ry="18"/>
<text text-anchor="middle" x="291" y="-374.3" font-family="Times,serif" font-size="14.00">secgroup_db</text>
</g>
<!-- 5ba94df5&#45;9b1e&#45;411b&#45;a3fc&#45;911e0544563e:secgroup_db&#45;&gt;5ba94df5&#45;9b1e&#45;411b&#45;a3fc&#45;911e0544563e:mysql_server_eth0 -->
<g id="edge11" class="edge"><title>5ba94df5&#45;9b1e&#45;411b&#45;a3fc&#45;911e0544563e:secgroup_db&#45;&gt;5ba94df5&#45;9b1e&#45;411b&#45;a3fc&#45;911e0544563e:mysql_server_eth0</title>
<path fill="none" stroke="black" d="M312.784,-361.116C325.611,-351.763 342.042,-339.782 356.181,-329.472"/>
<polygon fill="black" stroke="black" points="358.618,-332.027 364.636,-323.307 354.494,-326.371 358.618,-332.027"/>
</g>
<!-- 5ba94df5&#45;9b1e&#45;411b&#45;a3fc&#45;911e0544563e:secgroup_webserver -->
<g id="node13" class="node"><title>5ba94df5&#45;9b1e&#45;411b&#45;a3fc&#45;911e0544563e:secgroup_webserver</title>
<ellipse fill="#ceb2ff" stroke="#ceb2ff" cx="894" cy="-378" rx="83.2892" ry="18"/>
<text text-anchor="middle" x="894" y="-374.3" font-family="Times,serif" font-size="14.00">secgroup_webserver</text>
</g>
<!-- 5ba94df5&#45;9b1e&#45;411b&#45;a3fc&#45;911e0544563e:secgroup_webserver&#45;&gt;5ba94df5&#45;9b1e&#45;411b&#45;a3fc&#45;911e0544563e:wordpress_server_eth0 -->
<g id="edge10" class="edge"><title>5ba94df5&#45;9b1e&#45;411b&#45;a3fc&#45;911e0544563e:secgroup_webserver&#45;&gt;5ba94df5&#45;9b1e&#45;411b&#45;a3fc&#45;911e0544563e:wordpress_server_eth0</title>
<path fill="none" stroke="black" d="M860.044,-361.465C837.816,-351.295 808.562,-337.911 784.616,-326.955"/>
<polygon fill="black" stroke="black" points="785.939,-323.712 775.39,-322.734 783.027,-330.077 785.939,-323.712"/>
</g>
<!-- 5ba94df5&#45;9b1e&#45;411b&#45;a3fc&#45;911e0544563e:wordpress_wait_condition -->
<g id="node17" class="node"><title>5ba94df5&#45;9b1e&#45;411b&#45;a3fc&#45;911e0544563e:wordpress_wait_condition</title>
<ellipse fill="#b2eaff" stroke="#b2eaff" cx="634" cy="-18" rx="103.486" ry="18"/>
<text text-anchor="middle" x="634" y="-14.3" font-family="Times,serif" font-size="14.00">wordpress_wait_condition</text>
</g>
<!-- 5ba94df5&#45;9b1e&#45;411b&#45;a3fc&#45;911e0544563e:wordpress_server&#45;&gt;5ba94df5&#45;9b1e&#45;411b&#45;a3fc&#45;911e0544563e:wordpress_wait_condition -->
<g id="edge6" class="edge"><title>5ba94df5&#45;9b1e&#45;411b&#45;a3fc&#45;911e0544563e:wordpress_server&#45;&gt;5ba94df5&#45;9b1e&#45;411b&#45;a3fc&#45;911e0544563e:wordpress_wait_condition</title>
<path fill="none" stroke="black" d="M546.641,-73.1159C562.057,-63.5666 581.893,-51.2786 598.766,-40.8261"/>
<polygon fill="black" stroke="black" points="600.623,-43.7932 607.281,-35.5516 596.937,-37.8424 600.623,-43.7932"/>
</g>
<!-- 5ba94df5&#45;9b1e&#45;411b&#45;a3fc&#45;911e0544563e:wordpress_server_eth0&#45;&gt;5ba94df5&#45;9b1e&#45;411b&#45;a3fc&#45;911e0544563e:wordpress_server -->
<g id="edge3" class="edge"><title>5ba94df5&#45;9b1e&#45;411b&#45;a3fc&#45;911e0544563e:wordpress_server_eth0&#45;&gt;5ba94df5&#45;9b1e&#45;411b&#45;a3fc&#45;911e0544563e:wordpress_server</title>
<path fill="none" stroke="black" d="M743.832,-287.805C746.041,-268.726 746.763,-237.766 733,-216 697.356,-159.63 626.361,-125.529 576.377,-107.498"/>
<polygon fill="black" stroke="black" points="577.272,-104.103 566.677,-104.104 574.96,-110.71 577.272,-104.103"/>
</g>
<!-- 5ba94df5&#45;9b1e&#45;411b&#45;a3fc&#45;911e0544563e:wordpress_server_eth0&#45;&gt;5ba94df5&#45;9b1e&#45;411b&#45;a3fc&#45;911e0544563e:wordpress_server_floating -->
<g id="edge4" class="edge"><title>5ba94df5&#45;9b1e&#45;411b&#45;a3fc&#45;911e0544563e:wordpress_server_eth0&#45;&gt;5ba94df5&#45;9b1e&#45;411b&#45;a3fc&#45;911e0544563e:wordpress_server_floating</title>
<path fill="none" stroke="black" d="M712.936,-288.765C696.409,-279.203 675.296,-266.99 657.372,-256.62"/>
<polygon fill="black" stroke="black" points="658.739,-253.368 648.331,-251.39 655.234,-259.427 658.739,-253.368"/>
</g>
<!-- 5ba94df5&#45;9b1e&#45;411b&#45;a3fc&#45;911e0544563e:wordpress_wait_handle -->
<g id="node18" class="node"><title>5ba94df5&#45;9b1e&#45;411b&#45;a3fc&#45;911e0544563e:wordpress_wait_handle</title>
<ellipse fill="#b2c0ff" stroke="#b2c0ff" cx="875" cy="-162" rx="94.3628" ry="18"/>
<text text-anchor="middle" x="875" y="-158.3" font-family="Times,serif" font-size="14.00">wordpress_wait_handle</text>
</g>
<!-- 5ba94df5&#45;9b1e&#45;411b&#45;a3fc&#45;911e0544563e:wordpress_wait_handle&#45;&gt;5ba94df5&#45;9b1e&#45;411b&#45;a3fc&#45;911e0544563e:wordpress_server -->
<g id="edge15" class="edge"><title>5ba94df5&#45;9b1e&#45;411b&#45;a3fc&#45;911e0544563e:wordpress_wait_handle&#45;&gt;5ba94df5&#45;9b1e&#45;411b&#45;a3fc&#45;911e0544563e:wordpress_server</title>
<path fill="none" stroke="black" d="M812.12,-148.566C748.375,-135.961 650.206,-116.549 585.786,-103.811"/>
<polygon fill="black" stroke="black" points="586.236,-100.332 575.747,-101.826 584.878,-107.199 586.236,-100.332"/>
</g>
<!-- 5ba94df5&#45;9b1e&#45;411b&#45;a3fc&#45;911e0544563e:wordpress_wait_handle&#45;&gt;5ba94df5&#45;9b1e&#45;411b&#45;a3fc&#45;911e0544563e:wordpress_wait_condition -->
<g id="edge16" class="edge"><title>5ba94df5&#45;9b1e&#45;411b&#45;a3fc&#45;911e0544563e:wordpress_wait_handle&#45;&gt;5ba94df5&#45;9b1e&#45;411b&#45;a3fc&#45;911e0544563e:wordpress_wait_condition</title>
<path fill="none" stroke="black" d="M847.354,-144.711C803.823,-119.062 719.269,-69.2417 670.698,-40.623"/>
<polygon fill="black" stroke="black" points="672.458,-37.5976 662.066,-35.5366 668.905,-43.6286 672.458,-37.5976"/>
</g>
<!-- 5ba94df5&#45;9b1e&#45;411b&#45;a3fc&#45;911e0544563e:wp_auth_key -->
<g id="node19" class="node"><title>5ba94df5&#45;9b1e&#45;411b&#45;a3fc&#45;911e0544563e:wp_auth_key</title>
<ellipse fill="#b2ffea" stroke="#b2ffea" cx="521" cy="-162" rx="57.2688" ry="18"/>
<text text-anchor="middle" x="521" y="-158.3" font-family="Times,serif" font-size="14.00">wp_auth_key</text>
</g>
<!-- 5ba94df5&#45;9b1e&#45;411b&#45;a3fc&#45;911e0544563e:wp_auth_key&#45;&gt;5ba94df5&#45;9b1e&#45;411b&#45;a3fc&#45;911e0544563e:wordpress_server -->
<g id="edge5" class="edge"><title>5ba94df5&#45;9b1e&#45;411b&#45;a3fc&#45;911e0544563e:wp_auth_key&#45;&gt;5ba94df5&#45;9b1e&#45;411b&#45;a3fc&#45;911e0544563e:wordpress_server</title>
<path fill="none" stroke="black" d="M521,-143.697C521,-135.983 521,-126.712 521,-118.112"/>
<polygon fill="black" stroke="black" points="524.5,-118.104 521,-108.104 517.5,-118.104 524.5,-118.104"/>
</g>
</g>
</svg>
